<?xml version="1.0" encoding="UTF-8"?><svg id="Layer_2" xmlns="http://www.w3.org/2000/svg" xmlns:xlink="http://www.w3.org/1999/xlink" viewBox="0 0 45.63 39.46"><defs><linearGradient id="New_Gradient_Swatch_5" x1="18.6" y1="37.49" x2="18.6" y2="15.34" gradientUnits="userSpaceOnUse"><stop offset="0" stop-color="#0ad2ff"/><stop offset="1" stop-color="#001240"/></linearGradient></defs><g id="Layer_1-2"><path d="M45.63,7.2l-10.65.02C31.36,2.81,25.88,0,19.73,0c-3.5,0-6.78.92-9.63,2.51L1.98,1.05l1.59,7.37C1.32,11.62,0,15.52,0,19.73c0,10.9,8.83,19.73,19.73,19.73s19.73-8.83,19.73-19.73c0-1.43-.16-2.82-.44-4.16l6.62-8.36Z" fill="#fff"/><path d="M8.05,33.19c-5.27-2.15-5.74-10.96-5.74-10.96l10.32,7.51c-.79,4.82-4.58,3.45-4.58,3.45ZM23.85,34.61c-7.58,1.75-9.08-4.71-9.08-4.71,0,0,10.9-2.3,20.12-9.31,0,0-3.46,12.27-11.04,14.02Z" fill="url(#New_Gradient_Swatch_5)"/></g></svg>